<?xml version="1.0" encoding="iso-8859-1"?>
<!-- Generator: Adobe Illustrator 18.0.0, SVG Export Plug-In . SVG Version: 6.00 Build 0)  -->
<!DOCTYPE svg PUBLIC "-//W3C//DTD SVG 1.1//EN" "http://www.w3.org/Graphics/SVG/1.1/DTD/svg11.dtd">
<svg version="1.1" id="Capa_1" xmlns="http://www.w3.org/2000/svg" xmlns:xlink="http://www.w3.org/1999/xlink" x="0px" y="0px"
	 viewBox="0 0 490 490" style="enable-background:new 0 0 490 490;" xml:space="preserve">
<g>
	<g>
		<g>
			<path d="M426.302,387.178H63.698C28.575,387.178,0,358.604,0,323.48c0-35.123,28.575-63.697,63.698-63.697h362.604
				c35.123,0,63.698,28.574,63.698,63.697C490,358.604,461.425,387.178,426.302,387.178z M63.698,289.845
				c-18.548,0-33.637,15.089-33.637,33.635c0,18.547,15.089,33.637,33.637,33.637h362.604c18.548,0,33.637-15.089,33.637-33.637
				c0-18.546-15.089-33.635-33.637-33.635H63.698z"/>
		</g>
		<g>
			<path d="M102.707,323.48c0,11.344-9.195,20.54-20.54,20.54l0,0c-11.343,0-20.539-9.196-20.539-20.54l0,0
				c0-11.343,9.196-20.539,20.539-20.539l0,0C93.512,302.941,102.707,312.137,102.707,323.48L102.707,323.48z"/>
			<path d="M167.841,323.48c0,11.344-9.196,20.54-20.541,20.54l0,0c-11.343,0-20.539-9.196-20.539-20.54l0,0
				c0-11.343,9.196-20.539,20.539-20.539l0,0C158.645,302.941,167.841,312.137,167.841,323.48L167.841,323.48z"/>
			<path d="M232.974,323.48c0,11.344-9.196,20.54-20.541,20.54l0,0c-11.343,0-20.539-9.196-20.539-20.54l0,0
				c0-11.343,9.196-20.539,20.539-20.539l0,0C223.777,302.941,232.974,312.137,232.974,323.48L232.974,323.48z"/>
			<path d="M298.106,323.48c0,11.344-9.196,20.54-20.541,20.54l0,0c-11.343,0-20.539-9.196-20.539-20.54l0,0
				c0-11.343,9.196-20.539,20.539-20.539l0,0C288.91,302.941,298.106,312.137,298.106,323.48L298.106,323.48z"/>
			<path d="M363.239,323.48c0,11.344-9.196,20.54-20.541,20.54l0,0c-11.343,0-20.539-9.196-20.539-20.54l0,0
				c0-11.343,9.196-20.539,20.539-20.539l0,0C354.043,302.941,363.239,312.137,363.239,323.48L363.239,323.48z"/>
			<path d="M428.372,323.48c0,11.344-9.196,20.54-20.541,20.54l0,0c-11.342,0-20.539-9.196-20.539-20.54l0,0
				c0-11.343,9.197-20.539,20.539-20.539l0,0C419.176,302.941,428.372,312.137,428.372,323.48L428.372,323.48z"/>
		</g>
	</g>
	<g>
		<path d="M442.402,102.822h-39.748v19.915c0,1.66-1.345,3.006-3.006,3.006h-12.691c-1.661,0-3.007-1.346-3.007-3.006v-19.915
			h-39.748c-6.64,0-12.024,5.383-12.024,12.024v98.2c0,6.641,5.385,12.025,12.024,12.025h98.2c6.641,0,12.025-5.384,12.025-12.025
			v-98.2C454.428,108.205,449.043,102.822,442.402,102.822z"/>
		<path d="M294.101,102.822h-39.749v19.915c0,1.66-1.345,3.006-3.006,3.006h-12.691c-1.661,0-3.006-1.346-3.006-3.006v-19.915
			h-39.749c-6.64,0-12.024,5.383-12.024,12.024v98.2c0,6.641,5.385,12.025,12.024,12.025h98.201c6.64,0,12.024-5.384,12.024-12.025
			v-98.2C306.125,108.205,300.74,102.822,294.101,102.822z"/>
		<path d="M145.798,102.822h-39.749v19.915c0,1.66-1.345,3.006-3.006,3.006H90.352c-1.66,0-3.006-1.346-3.006-3.006v-19.915H47.598
			c-6.641,0-12.025,5.383-12.025,12.024v98.2c0,6.641,5.385,12.025,12.025,12.025h98.2c6.64,0,12.024-5.384,12.024-12.025v-98.2
			C157.822,108.205,152.438,102.822,145.798,102.822z"/>
	</g>
</g>
<g>
</g>
<g>
</g>
<g>
</g>
<g>
</g>
<g>
</g>
<g>
</g>
<g>
</g>
<g>
</g>
<g>
</g>
<g>
</g>
<g>
</g>
<g>
</g>
<g>
</g>
<g>
</g>
<g>
</g>
</svg>
